ply
format ascii 1.0
comment Created by Blender 2.71 (sub 0) - www.blender.org, source file: 'cubeThing.blend'
element vertex 199
property float x
property float y
property float z
property float nx
property float ny
property float nz
property uchar red
property uchar green
property uchar blue
element face 58
property list uchar uint vertex_indices
end_header
1.000000 1.000000 -1.000000 0.000000 0.000000 -1.000000 98 126 228
1.000000 -1.000000 -1.000000 0.000000 0.000000 -1.000000 79 138 255
-1.000000 -1.000000 -1.000000 0.000000 0.000000 -1.000000 76 136 255
-1.000000 1.000000 -1.000000 0.000000 0.000000 -1.000000 101 200 220
-1.000000 1.000000 1.000000 0.000000 0.000000 1.000000 230 108 67
-1.000000 -1.000000 1.000000 0.000000 0.000000 1.000000 255 45 13
-0.615920 -0.615919 1.000000 0.000000 0.000000 1.000000 232 67 16
-0.615919 0.615919 1.000000 0.000000 0.000000 1.000000 179 102 51
1.000000 0.999999 1.000000 1.000000 -0.000001 0.000000 255 148 138
0.999999 -1.000001 1.000000 1.000000 -0.000001 0.000000 255 59 38
1.000000 -0.513823 0.513823 1.000000 -0.000001 0.000000 255 56 35
1.000000 0.513822 0.513823 1.000000 -0.000001 0.000000 255 56 35
1.000000 -1.000000 -1.000000 -0.000000 -1.000000 -0.000000 17 255 0
0.999999 -1.000001 1.000000 -0.000000 -1.000000 -0.000000 255 58 37
-1.000000 -1.000000 1.000000 -0.000000 -1.000000 -0.000000 41 255 18
-1.000000 -1.000000 -1.000000 -0.000000 -1.000000 -0.000000 41 255 18
-1.000000 -1.000000 -1.000000 -1.000000 0.000000 -0.000000 252 50 15
-1.000000 -1.000000 1.000000 -1.000000 0.000000 -0.000000 254 46 13
-1.000000 1.000000 1.000000 -1.000000 0.000000 -0.000000 230 108 67
-1.000000 1.000000 -1.000000 -1.000000 0.000000 -0.000000 121 178 218
-1.000000 1.000000 1.000000 0.000000 1.000000 0.000000 230 255 228
1.000000 0.999999 1.000000 0.000000 1.000000 0.000000 25 255 9
0.720126 1.000000 0.720126 0.000000 1.000000 0.000000 111 255 101
-0.720126 1.000000 0.720126 0.000000 1.000000 0.000000 17 255 0
-0.615919 0.615919 1.000000 -0.989845 0.000000 0.142150 179 102 51
-0.615920 -0.615919 1.000000 -0.989845 0.000000 0.142150 185 107 9
-0.461127 -0.461127 2.077881 -0.989845 0.000000 0.142150 255 51 20
-0.461127 0.461127 2.077881 -0.989845 0.000000 0.142150 76 136 255
0.999999 -1.000001 1.000000 0.000000 0.000000 1.000000 255 56 35
0.615919 -0.615920 1.000000 0.000000 0.000000 1.000000 255 45 13
1.000000 0.999999 1.000000 0.000000 -0.000000 1.000000 124 166 9
0.615920 0.615919 1.000000 0.000000 -0.000000 1.000000 75 138 250
0.999999 -1.000001 1.000000 -0.000000 0.000000 1.000000 17 255 0
-0.461127 0.461127 2.077881 0.000000 0.000000 1.000000 76 136 255
-0.461127 -0.461127 2.077881 0.000000 0.000000 1.000000 77 135 254
-0.303254 -0.303253 2.077881 0.000000 0.000000 1.000000 76 136 255
-0.303254 0.303253 2.077881 0.000000 0.000000 1.000000 76 136 255
-0.615920 -0.615919 1.000000 -0.000001 -0.989845 0.142150 185 107 9
0.615919 -0.615920 1.000000 -0.000001 -0.989845 0.142150 255 45 13
0.461126 -0.461127 2.077881 -0.000001 -0.989845 0.142150 76 136 255
-0.461127 -0.461127 2.077881 -0.000001 -0.989845 0.142150 77 135 254
0.615920 0.615919 1.000000 0.000000 0.989845 0.142150 75 138 250
-0.615919 0.615919 1.000000 0.000000 0.989845 0.142150 33 234 50
-0.461127 0.461127 2.077881 0.000000 0.989845 0.142150 76 136 255
0.461127 0.461126 2.077881 0.000000 0.989845 0.142150 251 67 224
0.615919 -0.615920 1.000000 0.989845 -0.000001 0.142150 255 146 136
0.615920 0.615919 1.000000 0.989845 -0.000001 0.142150 80 138 255
0.461127 0.461126 2.077881 0.989845 -0.000001 0.142150 251 67 224
0.461126 -0.461127 2.077881 0.989845 -0.000001 0.142150 76 136 255
-0.303254 0.303253 2.077881 1.000000 -0.000000 0.000000 76 136 255
-0.303254 -0.303253 2.077881 1.000000 -0.000000 0.000000 76 136 255
-0.303254 -0.303253 1.782635 1.000000 -0.000000 0.000000 76 136 255
-0.303254 0.303253 1.782635 1.000000 -0.000000 0.000000 76 136 255
0.461126 -0.461127 2.077881 0.000000 0.000000 1.000000 76 136 255
0.303253 -0.303254 2.077881 0.000000 0.000000 1.000000 76 136 255
0.461127 0.461126 2.077881 0.000000 -0.000000 1.000000 76 136 255
0.303254 0.303253 2.077881 0.000000 -0.000000 1.000000 76 136 255
-0.303254 0.303253 1.782635 0.000000 0.000000 1.000000 76 136 255
-0.303254 -0.303253 1.782635 0.000000 0.000000 1.000000 255 255 255
-0.182788 -0.182787 1.782635 0.000000 0.000000 1.000000 254 255 255
-0.182787 0.182787 1.782635 0.000000 0.000000 1.000000 76 136 255
-0.303254 -0.303253 2.077881 0.000000 1.000000 0.000000 255 255 255
0.303253 -0.303254 2.077881 0.000000 1.000000 0.000000 104 156 255
0.303253 -0.303254 1.782635 0.000000 1.000000 0.000000 79 138 255
-0.303254 -0.303253 1.782635 0.000000 1.000000 0.000000 255 255 255
0.303254 0.303253 2.077881 -0.000000 -1.000000 0.000000 76 136 255
-0.303254 0.303253 2.077881 -0.000000 -1.000000 0.000000 76 136 255
-0.303254 0.303253 1.782635 -0.000000 -1.000000 0.000000 76 136 255
0.303254 0.303253 1.782635 -0.000000 -1.000000 0.000000 76 136 255
0.303253 -0.303254 2.077881 -1.000000 0.000001 0.000000 104 121 216
0.303254 0.303253 2.077881 -1.000000 0.000001 0.000000 76 136 255
0.303254 0.303253 1.782635 -1.000000 0.000001 0.000000 76 136 255
0.303253 -0.303254 1.782635 -1.000000 0.000001 0.000000 79 135 252
-0.182787 0.182787 1.782635 -1.000000 0.000000 0.000000 255 118 99
-0.182788 -0.182787 1.782635 -1.000000 0.000000 0.000000 255 45 13
-0.182788 -0.129250 2.496653 -1.000000 0.000000 0.000000 255 45 13
-0.182787 0.129250 2.755154 -1.000000 0.000000 0.000000 255 108 85
0.303253 -0.303254 1.782635 0.000000 0.000000 1.000000 79 138 255
0.182787 -0.182788 1.782635 0.000000 0.000000 1.000000 76 136 255
0.303254 0.303253 1.782635 0.000000 -0.000000 1.000000 76 136 255
0.182787 0.182787 1.782635 0.000000 -0.000000 1.000000 76 136 255
0.303253 -0.303254 1.782635 -0.000000 0.000000 1.000000 79 135 252
-0.182787 0.129250 2.755154 -0.963993 0.158673 0.213402 102 132 231
-0.182788 -0.129250 2.496653 -0.963993 0.158673 0.213402 255 45 13
-0.220644 -0.568270 3.102779 -0.963993 0.158673 0.213402 255 45 13
-0.037857 -0.309770 3.285567 -0.963993 0.158673 0.213402 76 136 255
-0.182788 -0.182787 1.782635 -0.000000 -0.997201 0.074770 76 136 255
0.182787 -0.182788 1.782635 -0.000000 -0.997201 0.074770 79 135 252
0.182787 -0.129250 2.496653 -0.000000 -0.997201 0.074770 115 115 203
-0.182788 -0.129250 2.496653 -0.000000 -0.997201 0.074770 80 134 249
0.182787 0.182787 1.782635 0.000000 0.998488 0.054967 250 67 224
-0.182787 0.182787 1.782635 0.000000 0.998488 0.054967 198 87 233
-0.182787 0.129250 2.755154 0.000000 0.998488 0.054967 102 154 255
0.182787 0.129250 2.755154 0.000000 0.998488 0.054967 76 136 255
0.182787 -0.182788 1.782635 1.000000 -0.000001 0.000000 82 137 254
0.182787 0.182787 1.782635 1.000000 -0.000001 0.000000 250 67 224
0.182787 0.129250 2.755154 1.000000 -0.000001 0.000000 76 136 255
0.182787 -0.129250 2.496653 1.000000 -0.000001 0.000000 115 162 255
-0.037857 -0.309770 3.285567 -0.799635 -0.184916 0.571306 76 136 255
-0.220644 -0.568270 3.102779 -0.799635 -0.184916 0.571306 255 45 13
0.338339 -1.256310 3.505743 -0.799635 -0.184916 0.571306 120 114 196
0.284802 -0.944273 3.688530 -0.799635 -0.184916 0.571306 77 135 254
-0.182788 -0.129250 2.496653 -0.281085 -0.678598 -0.678599 80 134 249
0.182787 -0.129250 2.496653 -0.281085 -0.678598 -0.678599 115 115 203
0.037856 -0.568270 2.844279 -0.281085 -0.678598 -0.678599 83 132 247
-0.220644 -0.568270 3.102779 -0.281085 -0.678598 -0.678599 77 135 254
0.182787 0.129250 2.755154 0.281085 0.678598 0.678599 76 136 255
-0.182787 0.129250 2.755154 0.281085 0.678598 0.678599 102 154 255
-0.037857 -0.309770 3.285567 0.281085 0.678598 0.678599 76 136 255
0.220644 -0.309770 3.027066 0.281085 0.678598 0.678599 243 249 255
0.182787 -0.129250 2.496653 0.965165 -0.218862 -0.143373 115 162 255
0.182787 0.129250 2.755154 0.965165 -0.218862 -0.143373 76 136 255
0.220644 -0.309770 3.027066 0.965165 -0.218862 -0.143373 76 136 255
0.037856 -0.568270 2.844279 0.965165 -0.218862 -0.143373 83 142 255
0.284802 -0.944273 3.688530 -0.500000 -0.500000 0.707107 76 136 255
0.338339 -1.256310 3.505743 -0.500000 -0.500000 0.707107 77 135 254
0.698380 -1.318084 3.716650 -0.500000 -0.500000 0.707107 76 136 255
0.644843 -1.006046 3.899438 -0.500000 -0.500000 0.707107 76 136 255
-0.220644 -0.568270 3.102779 -0.379061 -0.722002 -0.578814 76 136 255
0.037856 -0.568270 2.844279 -0.379061 -0.722002 -0.578814 83 132 247
0.521126 -1.073523 3.247242 -0.379061 -0.722002 -0.578814 76 136 255
0.338339 -1.256310 3.505743 -0.379061 -0.722002 -0.578814 79 134 252
0.220644 -0.309770 3.027066 0.428489 0.672458 0.603488 243 249 255
-0.037857 -0.309770 3.285567 0.428489 0.672458 0.603488 76 136 255
0.284802 -0.944273 3.688530 0.428489 0.672458 0.603488 255 229 5
0.467589 -0.761485 3.430030 0.428489 0.672458 0.603488 255 229 5
0.037856 -0.568270 2.844279 0.820404 0.164942 -0.547477 83 142 255
0.220644 -0.309770 3.027066 0.820404 0.164942 -0.547477 76 136 255
0.467589 -0.761485 3.430030 0.820404 0.164942 -0.547477 255 229 5
0.521126 -1.073523 3.247242 0.820404 0.164942 -0.547477 255 104 172
0.827630 -0.823259 3.640937 0.853554 -0.146447 0.500000 255 228 6
0.644843 -1.006046 3.899438 0.853554 -0.146447 0.500000 160 118 219
0.698380 -1.318084 3.716650 0.853554 -0.146447 0.500000 255 229 5
0.881167 -1.135296 3.458150 0.853554 -0.146447 0.500000 255 229 5
0.338339 -1.256310 3.505743 0.146446 -0.853554 -0.500000 79 134 252
0.521126 -1.073523 3.247242 0.146446 -0.853554 -0.500000 76 136 255
0.881167 -1.135296 3.458150 0.146446 -0.853554 -0.500000 76 136 255
0.698380 -1.318084 3.716650 0.146446 -0.853554 -0.500000 76 136 255
0.467589 -0.761485 3.430030 -0.146446 0.853554 0.500000 255 229 5
0.284802 -0.944273 3.688530 -0.146446 0.853554 0.500000 255 229 5
0.644843 -1.006046 3.899438 -0.146446 0.853554 0.500000 235 168 219
0.827630 -0.823259 3.640937 -0.146446 0.853554 0.500000 255 228 6
0.521126 -1.073523 3.247242 0.500000 0.500000 -0.707107 255 104 172
0.467589 -0.761485 3.430030 0.500000 0.500000 -0.707107 255 229 5
0.827630 -0.823259 3.640937 0.500000 0.500000 -0.707107 255 228 6
0.881167 -1.135296 3.458150 0.500000 0.500000 -0.707107 255 229 5
-0.720126 1.000000 0.720126 0.000000 0.441495 0.897264 17 255 0
0.720126 1.000000 0.720126 0.000000 0.441495 0.897264 111 176 14
0.349051 1.754147 0.349051 0.000000 0.441495 0.897264 36 238 1
-0.349050 1.754147 0.349051 0.000000 0.441495 0.897264 51 224 2
-1.000000 1.000000 -1.000000 0.000000 1.000000 0.000000 101 202 221
-0.720126 1.000000 -0.720126 0.000000 1.000000 0.000000 150 210 254
1.000000 1.000000 -1.000000 0.000000 1.000000 0.000000 98 151 255
0.720126 1.000000 -0.720126 0.000000 1.000000 0.000000 223 253 225
0.349051 1.754147 0.349051 0.000000 1.000000 0.000000 17 255 0
0.349051 1.754147 -0.349050 0.000000 1.000000 0.000000 17 255 0
-0.349050 1.754147 -0.349050 0.000000 1.000000 0.000000 17 255 0
-0.349050 1.754147 0.349051 0.000000 1.000000 0.000000 17 255 0
-0.720126 1.000000 -0.720126 -0.897263 0.441496 0.000000 150 150 185
-0.720126 1.000000 0.720126 -0.897263 0.441496 0.000000 17 255 0
-0.349050 1.754147 0.349051 -0.897263 0.441496 0.000000 17 255 0
-0.349050 1.754147 -0.349050 -0.897263 0.441496 0.000000 17 255 0
0.720126 1.000000 0.720126 0.897264 0.441495 -0.000000 111 176 14
0.720126 1.000000 -0.720126 0.897264 0.441495 -0.000000 223 80 35
0.349051 1.754147 -0.349050 0.897264 0.441495 -0.000000 17 255 0
0.349051 1.754147 0.349051 0.897264 0.441495 -0.000000 17 255 0
0.720126 1.000000 -0.720126 0.000000 0.441496 -0.897263 223 253 225
-0.720126 1.000000 -0.720126 0.000000 0.441496 -0.897263 150 210 254
-0.349050 1.754147 -0.349050 0.000000 0.441496 -0.897263 17 255 0
0.349051 1.754147 -0.349050 0.000000 0.441496 -0.897263 17 255 0
1.000000 0.513822 0.513823 -0.583902 0.000000 0.811824 255 255 255
1.000000 -0.513823 0.513823 -0.583902 0.000000 0.811824 71 207 3
1.423267 -0.818257 0.818256 -0.583902 0.000000 0.811824 17 255 0
1.423268 0.818256 0.818256 -0.583902 0.000000 0.811824 17 255 0
0.999999 -1.000001 1.000000 1.000000 -0.000000 0.000000 255 59 38
1.000000 -1.000000 -1.000000 1.000000 -0.000000 0.000000 255 255 255
1.000000 -0.513823 -0.513823 1.000000 -0.000000 0.000000 255 58 37
1.000000 -0.513823 0.513823 1.000000 -0.000000 0.000000 255 56 35
1.000000 1.000000 -1.000000 1.000000 -0.000000 -0.000000 98 126 228
1.000000 0.999999 1.000000 1.000000 -0.000000 -0.000000 255 148 138
1.000000 0.513822 0.513823 1.000000 -0.000000 -0.000000 255 56 35
1.000000 0.513822 -0.513823 1.000000 -0.000000 -0.000000 218 72 80
1.000000 -0.513823 -0.513823 1.000000 0.000000 0.000000 255 166 156
1.423268 0.818256 -0.818256 1.000000 -0.000000 0.000000 255 56 35
1.423268 0.818256 0.818256 1.000000 -0.000000 0.000000 255 56 35
1.423267 -0.818257 0.818256 1.000000 -0.000000 0.000000 255 56 35
1.423268 -0.818256 -0.818256 1.000000 -0.000000 0.000000 255 57 36
1.000000 -0.513823 0.513823 -0.583902 -0.811824 -0.000000 65 214 3
1.000000 -0.513823 -0.513823 -0.583902 -0.811824 -0.000000 17 255 0
1.423268 -0.818256 -0.818256 -0.583902 -0.811824 -0.000000 200 249 190
1.423267 -0.818257 0.818256 -0.583902 -0.811824 -0.000000 255 255 255
1.000000 0.513822 -0.513823 -0.583901 0.811825 0.000000 29 231 52
1.000000 0.513822 0.513823 -0.583901 0.811825 0.000000 255 255 255
1.423268 0.818256 0.818256 -0.583901 0.811825 0.000000 19 255 2
1.423268 0.818256 -0.818256 -0.583901 0.811825 0.000000 255 255 255
1.000000 -0.513823 -0.513823 -0.583902 0.000000 -0.811824 23 251 17
1.000000 0.513822 -0.513823 -0.583902 0.000000 -0.811824 29 231 52
1.423268 0.818256 -0.818256 -0.583902 0.000000 -0.811824 37 255 22
1.423268 -0.818256 -0.818256 -0.583902 0.000000 -0.811824 76 136 255
4 0 1 2 3
4 4 5 6 7
4 8 9 10 11
4 12 13 14 15
4 16 17 18 19
4 20 21 22 23
4 24 25 26 27
4 5 28 29 6
4 30 4 7 31
4 32 30 31 29
4 33 34 35 36
4 37 38 39 40
4 41 42 43 44
4 45 46 47 48
4 49 50 51 52
4 34 53 54 35
4 55 33 36 56
4 53 55 56 54
4 57 58 59 60
4 61 62 63 64
4 65 66 67 68
4 69 70 71 72
4 73 74 75 76
4 58 77 78 59
4 79 57 60 80
4 81 79 80 78
4 82 83 84 85
4 86 87 88 89
4 90 91 92 93
4 94 95 96 97
4 98 99 100 101
4 102 103 104 105
4 106 107 108 109
4 110 111 112 113
4 114 115 116 117
4 118 119 120 121
4 122 123 124 125
4 126 127 128 129
4 130 131 132 133
4 134 135 136 137
4 138 139 140 141
4 142 143 144 145
4 146 147 148 149
4 150 20 23 151
4 21 152 153 22
4 152 150 151 153
4 154 155 156 157
4 158 159 160 161
4 162 163 164 165
4 166 167 168 169
4 170 171 172 173
4 174 175 176 177
4 178 179 180 181
4 175 178 181 182
4 183 184 185 186
4 187 188 189 190
4 191 192 193 194
4 195 196 197 198
